<?xml version="1.0" standalone="no"?>
<!DOCTYPE svg PUBLIC "-//W3C//DTD SVG 20010904//EN"
 "http://www.w3.org/TR/2001/REC-SVG-20010904/DTD/svg10.dtd">
<svg version="1.0" xmlns="http://www.w3.org/2000/svg"
 width="360.000000pt" height="360.000000pt" viewBox="0 0 360.000000 360.000000"
 preserveAspectRatio="xMidYMid meet">

<g transform="translate(0.000000,360.000000) scale(0.100000,-0.100000)"
fill="#000000" stroke="none">
<path d="M2324 3148 c-45 -28 -89 -64 -99 -80 -15 -26 -95 -124 -127 -156 -7
-8 -36 -28 -65 -45 -189 -117 -299 -210 -338 -287 -13 -25 -39 -69 -59 -99
-20 -29 -36 -57 -36 -62 0 -5 -19 -28 -43 -52 -23 -23 -54 -57 -67 -75 -22
-29 -31 -33 -69 -34 -41 0 -50 -6 -139 -90 -68 -63 -106 -107 -129 -151 -18
-34 -53 -80 -78 -103 -25 -22 -45 -45 -45 -51 0 -5 -29 -33 -65 -62 -89 -72
-197 -204 -274 -334 -63 -107 -76 -150 -25 -86 45 57 246 250 289 278 22 14
75 58 117 98 43 40 86 73 97 73 35 0 50 11 71 55 31 65 116 140 181 160 74 23
80 29 139 126 66 106 101 143 170 180 79 41 128 89 146 142 14 40 19 46 47 49
27 3 36 12 64 63 19 34 63 88 103 126 59 56 76 80 116 165 25 54 62 116 82
137 21 21 30 37 22 37 -8 0 6 21 31 48 47 49 74 82 68 82 -2 0 -41 -23 -85
-52z"/>
<path d="M2825 3074 c-42 -28 -155 -121 -168 -139 -4 -5 -12 -28 -18 -50 -7
-26 -30 -60 -63 -95 -30 -30 -63 -73 -76 -95 -12 -22 -58 -71 -102 -110 -58
-52 -87 -87 -112 -135 -22 -42 -44 -70 -60 -78 -18 -8 -25 -18 -23 -34 2 -19
-8 -26 -61 -48 -68 -27 -111 -72 -132 -136 -8 -22 -32 -51 -68 -79 -31 -25
-71 -65 -88 -88 -17 -23 -53 -59 -82 -80 -31 -24 -53 -49 -57 -65 -3 -16 -20
-37 -40 -50 -19 -12 -35 -28 -35 -36 0 -17 -70 -82 -98 -90 -19 -6 -126 -136
-150 -182 -6 -11 -27 -32 -47 -45 -20 -13 -62 -62 -94 -109 -33 -47 -74 -98
-91 -115 -39 -36 -163 -220 -195 -290 -13 -27 -34 -66 -46 -85 -41 -64 42 34
123 145 40 56 171 185 186 185 6 0 28 19 49 42 21 23 66 70 99 104 34 34 79
88 100 120 33 48 47 60 91 76 33 12 60 30 73 49 12 16 28 29 36 29 19 0 102
77 119 110 33 64 137 175 183 196 60 27 74 44 123 140 29 60 47 82 71 94 44
20 175 173 203 236 17 37 31 53 49 58 31 8 92 86 136 176 18 36 52 85 75 110
35 36 48 60 64 117 16 59 33 91 95 173 42 55 75 100 73 100 -1 0 -20 -12 -42
-26z"/>
<path d="M3012 2828 c-21 -40 -47 -96 -56 -124 -9 -28 -27 -60 -39 -70 -13
-11 -31 -47 -41 -80 -12 -42 -40 -90 -86 -151 -37 -50 -85 -124 -108 -166 -23
-41 -52 -87 -65 -103 -13 -16 -40 -56 -59 -89 -19 -33 -62 -87 -94 -120 -32
-33 -75 -89 -94 -124 -25 -47 -55 -80 -107 -123 -42 -34 -73 -67 -73 -77 0
-10 -43 -61 -95 -114 -63 -63 -103 -113 -119 -147 -30 -63 -72 -110 -101 -110
-24 0 -75 -42 -75 -62 0 -6 -13 -26 -29 -43 -16 -16 -36 -54 -46 -83 -10 -31
-26 -59 -41 -68 -13 -9 -34 -39 -47 -67 -29 -64 -139 -203 -166 -212 -23 -7
-43 -67 -59 -175 -6 -36 -13 -74 -16 -85 -4 -11 8 9 26 45 60 116 93 160 150
198 87 59 102 74 134 131 17 32 54 75 88 105 110 94 198 181 213 211 9 17 25
37 37 45 12 8 47 37 78 65 31 27 70 60 87 73 16 12 42 48 56 80 33 73 74 132
91 132 17 0 145 175 207 282 26 46 73 112 103 146 31 35 69 86 84 115 41 79
109 196 146 252 40 62 81 154 90 203 4 20 15 53 25 73 12 24 20 71 24 140 4
57 11 119 15 137 5 17 7 32 5 32 -2 0 -21 -33 -43 -72z"/>
</g>
</svg>
